<svg display="none" version="1.1" xmlns="http://www.w3.org/2000/svg" xmlns:xlink="http://www.w3.org/1999/xlink" width="272" height="32" viewBox="0 0 272 32">
<defs>
<g id="icon-search">
	<path class="path1" d="M28.072 24.749l-6.046-6.046c0.912-1.499 1.437-3.256 1.437-5.139 0-5.466-4.738-10.203-10.205-10.203-5.466 0-9.898 4.432-9.898 9.898 0 5.467 4.736 10.205 10.203 10.205 1.818 0 3.52-0.493 4.984-1.349l6.078 6.080c0.597 0.595 1.56 0.595 2.154 0l1.509-1.507c0.594-0.595 0.378-1.344-0.216-1.938zM6.406 13.258c0-3.784 3.067-6.853 6.851-6.853 3.786 0 7.158 3.373 7.158 7.158s-3.067 6.853-6.853 6.853-7.157-3.373-7.157-7.158z"></path>
</g>
<g id="icon-twitter">
	<path class="path1" d="M16 0.64c-8.483 0-15.36 6.877-15.36 15.36s6.877 15.36 15.36 15.36 15.36-6.877 15.36-15.36-6.877-15.36-15.36-15.36zM22.246 13.224c0.006 0.13 0.010 0.261 0.010 0.392 0 3.997-3.043 8.606-8.608 8.606-1.707 0-3.299-0.499-4.637-1.36 0.237 0.029 0.478 0.042 0.722 0.042 1.418 0 2.722-0.483 3.758-1.296-1.323-0.024-2.442-0.899-2.827-2.099 0.184 0.035 0.374 0.054 0.568 0.054 0.277 0 0.544-0.037 0.797-0.106-1.382-0.278-2.427-1.501-2.427-2.966 0-0.013 0-0.026 0.002-0.037 0.408 0.226 0.875 0.362 1.37 0.378-0.81-0.542-1.344-1.467-1.344-2.518 0-0.555 0.149-1.075 0.41-1.522 1.491 1.832 3.722 3.037 6.235 3.162-0.051-0.221-0.078-0.451-0.078-0.69 0-1.67 1.355-3.026 3.026-3.026 0.87 0 1.656 0.366 2.208 0.955 0.69-0.134 1.338-0.386 1.922-0.733-0.227 0.706-0.706 1.299-1.331 1.674 0.613-0.074 1.195-0.235 1.738-0.477-0.405 0.606-0.92 1.139-1.51 1.566z"></path>
</g>
<g id="icon-facebook">
	<path class="path1" d="M16 0.64c-8.483 0-15.36 6.877-15.36 15.36s6.877 15.36 15.36 15.36 15.36-6.877 15.36-15.36-6.877-15.36-15.36-15.36zM19.637 11.254h-2.309c-0.272 0-0.576 0.36-0.576 0.838v1.667h2.886v2.378h-2.886v7.138h-2.726v-7.138h-2.47v-2.376h2.47v-1.398c0-2.006 1.392-3.637 3.302-3.637h2.309v2.528z"></path>
</g>
<g id="icon-pinterest">
	<path class="path1" d="M16 0.64c-8.483 0-15.36 6.877-15.36 15.36s6.877 15.36 15.36 15.36 15.36-6.877 15.36-15.36-6.877-15.36-15.36-15.36zM17.050 19.642c-0.984-0.077-1.397-0.565-2.168-1.034-0.426 2.227-0.942 4.362-2.48 5.475-0.474-3.365 0.698-5.891 1.24-8.573-0.926-1.558 0.112-4.698 2.066-3.925 2.405 0.952-2.083 5.798 0.93 6.405 3.146 0.632 4.429-5.458 2.478-7.437-2.818-2.859-8.202-0.066-7.539 4.029 0.162 1.002 1.194 1.304 0.413 2.686-1.803-0.4-2.342-1.822-2.272-3.718 0.112-3.106 2.789-5.278 5.474-5.581 3.397-0.379 6.584 1.246 7.026 4.442 0.494 3.608-1.534 7.512-5.166 7.23z"></path>
</g>
<g id="icon-linkedin">
	<path class="path1" d="M16 0.64c-8.483 0-15.36 6.877-15.36 15.36s6.877 15.36 15.36 15.36 15.36-6.877 15.36-15.36-6.877-15.36-15.36-15.36zM12.24 22.366h-3.11v-10.008h3.11v10.008zM10.666 11.13c-0.982 0-1.618-0.698-1.618-1.557 0-0.88 0.654-1.555 1.658-1.555s1.618 0.675 1.637 1.555c0.002 0.861-0.634 1.557-1.677 1.557zM23.598 22.366h-3.109v-5.547c0-1.29-0.451-2.168-1.576-2.168-0.859 0-1.37 0.594-1.597 1.166-0.082 0.203-0.102 0.491-0.102 0.776v5.771h-3.112v-6.816c0-1.248-0.040-2.293-0.082-3.192h2.701l0.144 1.39h0.061c0.41-0.654 1.413-1.616 3.091-1.616 2.046 0 3.581 1.37 3.581 4.317v5.918z"></path>
</g>
<g id="icon-eye">
	<path class="line-eye" fill="none" fill-opacity="0" stroke="#ccc" stroke-width="0.5" stroke-miterlimit="1" d="M16,6C7.163,6,0,16,0,16s7.163,10,16,10s16-10,16-10S24.837,6,16,6z M16,22c-3.313,0-6-2.688-6-6
	c0-3.313,2.687-6,6-6c3.312,0,6,2.687,6,6C22,19.312,19.312,22,16,22z M16,12c-2.209,0-4,1.791-4,4s1.791,4,4,4s4-1.791,4-4 S18.209,12,16,12z"/>
</g>
<symbol id="icon-instagram" viewBox="0 0 1024 1024">
	<title>instagram</title>
	<path class="path1" d="M518.22 601.605c24.826 0 46.013-8.467 63.559-25.44 17.56-16.973 26.346-37.493 26.346-61.519 0-24.066-8.773-44.573-26.346-61.559-17.533-16.96-38.733-25.453-63.559-25.453-24.64 0-45.733 8.493-63.293 25.453-17.546 16.986-26.333 37.493-26.333 61.559 0 24.040 8.787 44.546 26.333 61.519 17.56 16.946 38.653 25.44 63.293 25.44z"></path>
	<path class="path2" d="M670.685 341.796h-50.653c-5.613 0-10.36 1.987-14.226 5.96-3.893 3.987-5.84 8.68-5.84 14.133v47.999c0 5.613 1.947 10.373 5.84 14.24 3.867 3.893 8.613 5.827 14.226 5.827h50.653c5.613 0 10.36-1.933 14.24-5.827 3.88-3.867 5.827-8.627 5.827-14.24v-47.999c0-5.453-1.947-10.147-5.827-14.133-3.88-3.973-8.627-5.96-14.24-5.96z"></path>
	<path class="path3" d="M657.298 519.273c0 24.453-6.2 46.973-18.613 67.652-12.44 20.666-29.293 36.986-50.626 49.039-21.346 12.013-44.626 18.026-69.826 18.026-38.226 0-70.906-13.133-98.065-39.426-27.146-26.28-40.733-58.039-40.733-95.279 0-13.186 1.947-25.893 5.827-38.093h-41.026v188.518c0 5.040 1.693 9.253 5.107 12.653 3.373 3.413 7.6 5.107 12.64 5.107h311.023c4.84 0 9.013-1.693 12.507-5.107 3.493-3.4 5.24-7.613 5.24-12.653v-188.531h-39.266c3.867 12.213 5.813 24.906 5.813 38.093z"></path>
	<path class="path4" d="M511.967 0c-282.756 0-511.967 229.21-511.967 511.967 0 282.81 229.21 512.033 511.967 512.033 282.81 0 512.020-229.21 512.020-512.033 0.013-282.756-229.21-511.967-512.020-511.967zM741.377 681.631c0 15.72-5.627 29.186-16.893 40.439-11.253 11.267-24.72 16.88-40.439 16.88h-332.262c-15.706 0-29.186-5.613-40.439-16.88-11.24-11.253-16.88-24.72-16.88-40.439v-332.262c0-15.706 5.64-29.2 16.88-40.439 11.253-11.253 24.733-16.88 40.439-16.88h332.249c15.733 0 29.186 5.627 40.453 16.88 11.253 11.24 16.88 24.733 16.88 40.439v332.262z"></path>
</symbol>
</defs></svg>